<svg id="visual" viewBox="0 0 900 600" width="900" height="600" xmlns="http://www.w3.org/2000/svg" xmlns:xlink="http://www.w3.org/1999/xlink" version="1.1"><rect x="0" y="0" width="900" height="600" fill="#001220"></rect><path d="M0 445L13.7 435.3C27.3 425.7 54.7 406.3 82 398.8C109.3 391.3 136.7 395.7 163.8 399.5C191 403.3 218 406.7 245.2 413.8C272.3 421 299.7 432 327 431.7C354.3 431.3 381.7 419.7 409 420.5C436.3 421.3 463.7 434.7 491 439.5C518.3 444.3 545.7 440.7 573 436.8C600.3 433 627.7 429 654.8 428.3C682 427.7 709 430.3 736.2 422.2C763.3 414 790.7 395 818 394.2C845.3 393.3 872.7 410.7 886.3 419.3L900 428L900 601L886.3 601C872.7 601 845.3 601 818 601C790.7 601 763.3 601 736.2 601C709 601 682 601 654.8 601C627.7 601 600.3 601 573 601C545.7 601 518.3 601 491 601C463.7 601 436.3 601 409 601C381.7 601 354.3 601 327 601C299.7 601 272.3 601 245.2 601C218 601 191 601 163.8 601C136.7 601 109.3 601 82 601C54.7 601 27.3 601 13.7 601L0 601Z" fill="#00b9ff"></path><path d="M0 447L13.7 439.3C27.3 431.7 54.7 416.3 82 414.7C109.3 413 136.7 425 163.8 424.3C191 423.7 218 410.3 245.2 408.7C272.3 407 299.7 417 327 418C354.3 419 381.7 411 409 416.7C436.3 422.3 463.7 441.7 491 451.8C518.3 462 545.7 463 573 457.7C600.3 452.3 627.7 440.7 654.8 437.2C682 433.7 709 438.3 736.2 437.5C763.3 436.7 790.7 430.3 818 422.2C845.3 414 872.7 404 886.3 399L900 394L900 601L886.3 601C872.7 601 845.3 601 818 601C790.7 601 763.3 601 736.2 601C709 601 682 601 654.8 601C627.7 601 600.3 601 573 601C545.7 601 518.3 601 491 601C463.7 601 436.3 601 409 601C381.7 601 354.3 601 327 601C299.7 601 272.3 601 245.2 601C218 601 191 601 163.8 601C136.7 601 109.3 601 82 601C54.7 601 27.3 601 13.7 601L0 601Z" fill="#00a0ff"></path><path d="M0 503L13.7 500.8C27.3 498.7 54.7 494.3 82 487C109.3 479.7 136.7 469.3 163.8 465.5C191 461.7 218 464.3 245.2 469C272.3 473.7 299.7 480.3 327 477.3C354.3 474.3 381.7 461.7 409 462.2C436.3 462.7 463.7 476.3 491 477.2C518.3 478 545.7 466 573 458.8C600.3 451.7 627.7 449.3 654.8 452.2C682 455 709 463 736.2 464.8C763.3 466.7 790.7 462.3 818 465.2C845.3 468 872.7 478 886.3 483L900 488L900 601L886.3 601C872.7 601 845.3 601 818 601C790.7 601 763.3 601 736.2 601C709 601 682 601 654.8 601C627.7 601 600.3 601 573 601C545.7 601 518.3 601 491 601C463.7 601 436.3 601 409 601C381.7 601 354.3 601 327 601C299.7 601 272.3 601 245.2 601C218 601 191 601 163.8 601C136.7 601 109.3 601 82 601C54.7 601 27.3 601 13.7 601L0 601Z" fill="#0083ff"></path><path d="M0 537L13.7 529.2C27.3 521.3 54.7 505.7 82 497.7C109.3 489.7 136.7 489.3 163.8 493.7C191 498 218 507 245.2 512C272.3 517 299.7 518 327 520.7C354.3 523.3 381.7 527.7 409 523C436.3 518.3 463.7 504.7 491 500C518.3 495.3 545.7 499.7 573 501.5C600.3 503.3 627.7 502.7 654.8 501C682 499.3 709 496.7 736.2 501.2C763.3 505.7 790.7 517.3 818 525.3C845.3 533.3 872.7 537.7 886.3 539.8L900 542L900 601L886.3 601C872.7 601 845.3 601 818 601C790.7 601 763.3 601 736.2 601C709 601 682 601 654.8 601C627.7 601 600.3 601 573 601C545.7 601 518.3 601 491 601C463.7 601 436.3 601 409 601C381.7 601 354.3 601 327 601C299.7 601 272.3 601 245.2 601C218 601 191 601 163.8 601C136.7 601 109.3 601 82 601C54.7 601 27.3 601 13.7 601L0 601Z" fill="#0f5dff"></path><path d="M0 529L13.7 528.7C27.3 528.3 54.7 527.7 82 528.5C109.3 529.3 136.7 531.7 163.8 536.7C191 541.7 218 549.3 245.2 547.8C272.3 546.3 299.7 535.7 327 535.5C354.3 535.3 381.7 545.7 409 546.2C436.3 546.7 463.7 537.3 491 535.8C518.3 534.3 545.7 540.7 573 546.7C600.3 552.7 627.7 558.3 654.8 555.2C682 552 709 540 736.2 536C763.3 532 790.7 536 818 539C845.3 542 872.7 544 886.3 545L900 546L900 601L886.3 601C872.7 601 845.3 601 818 601C790.7 601 763.3 601 736.2 601C709 601 682 601 654.8 601C627.7 601 600.3 601 573 601C545.7 601 518.3 601 491 601C463.7 601 436.3 601 409 601C381.7 601 354.3 601 327 601C299.7 601 272.3 601 245.2 601C218 601 191 601 163.8 601C136.7 601 109.3 601 82 601C54.7 601 27.3 601 13.7 601L0 601Z" fill="#6400ff"></path></svg>